<?xml version="1.0" encoding="UTF-8"?>
<svg id="Capa_1" data-name="Capa 1" xmlns="http://www.w3.org/2000/svg" viewBox="0 0 184.06 162.41">
  <defs>
    <style>
      .cls-1 {
        fill: #51c2ec;
      }
    </style>
  </defs>
  <path class="cls-1" d="m184.06,66.52c-11.15-49.7-66.33-42.14-71.24-41.95C113.2,0,92.03,0,92.03,0c0,0-21.17,0-20.79,24.57-4.91-.19-60.09-7.75-71.24,41.95.19,5.1,0,51.59,0,51.59,0,0,6.24,39.5,51.97,44.22,28.72.19,40.06,0,40.06,0,0,0,11.34.19,40.06,0,45.73-4.72,51.97-44.22,51.97-44.22,0,0-.19-46.49,0-51.59Zm-22.31,51.64c0,5.84-4.74,10.58-10.58,10.58H33.63c-5.84,0-10.58-4.74-10.58-10.58v-49.89c0-5.84,4.74-10.58,10.58-10.58h117.54c5.84,0,10.58,4.74,10.58,10.58v49.89Z"/>
  <path class="cls-1" d="m86.44,63.85h-2.93l-7.94,8.6h-32.5s-10.68-.38-11.06,10.58c.09,8.69,0,19.75,0,19.75,0,0-.19,8.31,9.64,8.88,3.69-.09,34.77,0,34.77,0l8.88,8.6h1.61v-15.87l-6.52-4.91h-34.49s-3.78-.28-3.78-3.97c.19-2.36,0-6.8,0-6.8,0,0-.19-4.82,3.97-4.63,3.12.28,33.64,0,33.64,0l6.61-3.87.09-16.35Z"/>
  <path class="cls-1" d="m98.08,64.1h2.93s7.94,8.6,7.94,8.6h32.5s10.68-.38,11.06,10.58c-.09,8.69,0,19.75,0,19.75,0,0,.19,8.31-9.64,8.88-3.69-.09-34.77,0-34.77,0l-8.88,8.6h-1.61v-15.87s6.52-4.91,6.52-4.91h34.49s3.78-.28,3.78-3.97c-.19-2.36,0-6.8,0-6.8,0,0,.19-4.82-3.97-4.63-3.12.28-33.64,0-33.64,0l-6.61-3.87-.09-16.35Z"/>
</svg>